<svg xmlns="http://www.w3.org/2000/svg" width="1280" height="420" viewBox="0 0 1280 420" role="img" aria-labelledby="title desc">
  <title id="title">Xiaoze Prompt</title>
  <desc id="desc">Live-action storyboard and Seedance prompt skill for LibTV</desc>
  <defs>
    <linearGradient id="bg" x1="0" y1="0" x2="1" y2="1">
      <stop offset="0" stop-color="#090D18"/>
      <stop offset="0.48" stop-color="#17132D"/>
      <stop offset="1" stop-color="#081A2E"/>
    </linearGradient>
    <radialGradient id="glow" cx="50%" cy="50%" r="50%">
      <stop offset="0" stop-color="#8B5CF6" stop-opacity=".58"/>
      <stop offset="1" stop-color="#8B5CF6" stop-opacity="0"/>
    </radialGradient>
    <linearGradient id="accent" x1="0" y1="0" x2="1" y2="0">
      <stop offset="0" stop-color="#A78BFA"/>
      <stop offset=".55" stop-color="#60A5FA"/>
      <stop offset="1" stop-color="#22D3EE"/>
    </linearGradient>
    <filter id="blur"><feGaussianBlur stdDeviation="32"/></filter>
    <filter id="shadow" x="-30%" y="-30%" width="160%" height="160%">
      <feDropShadow dx="0" dy="10" stdDeviation="14" flood-color="#000" flood-opacity=".45"/>
    </filter>
  </defs>
  <rect width="1280" height="420" rx="28" fill="url(#bg)"/>
  <circle cx="1040" cy="80" r="260" fill="url(#glow)" filter="url(#blur)"/>
  <circle cx="160" cy="410" r="240" fill="#0EA5E9" opacity=".13" filter="url(#blur)"/>
  <g opacity=".18" stroke="#93C5FD">
    <path d="M0 92H1280M0 210H1280M0 328H1280"/>
    <path d="M118 0V420M318 0V420M518 0V420M718 0V420M918 0V420M1118 0V420"/>
  </g>
  <g transform="translate(90 82)" filter="url(#shadow)">
    <rect x="0" y="0" width="124" height="92" rx="18" fill="#111827" stroke="url(#accent)" stroke-width="3"/>
    <path d="M28 30h68M28 48h52M28 66h38" stroke="url(#accent)" stroke-width="7" stroke-linecap="round"/>
    <path d="M92 72l22 16V60z" fill="#22D3EE"/>
  </g>
  <text x="90" y="250" fill="#F8FAFC" font-family="Segoe UI, Microsoft YaHei, sans-serif" font-size="66" font-weight="750" letter-spacing="1">Xiaoze Prompt</text>
  <rect x="90" y="274" width="480" height="5" rx="3" fill="url(#accent)"/>
  <text x="90" y="326" fill="#CBD5E1" font-family="Segoe UI, Microsoft YaHei, sans-serif" font-size="25">真人短剧分镜 · 15秒容量审核 · Seedance 2.0 · LibTV</text>
  <g transform="translate(870 224)">
    <rect width="310" height="112" rx="22" fill="#0F172A" fill-opacity=".78" stroke="#475569"/>
    <text x="28" y="42" fill="#94A3B8" font-family="Segoe UI, Microsoft YaHei, sans-serif" font-size="17">DIRECTING RULE</text>
    <text x="28" y="79" fill="#F8FAFC" font-family="Segoe UI, Microsoft YaHei, sans-serif" font-size="24" font-weight="650">谁说话，镜头就切给谁</text>
  </g>
</svg>
